<svg width="16" height="14" viewBox="0 0 16 14" fill="none" xmlns="http://www.w3.org/2000/svg">
<path d="M15.6098 1.59192C15.0293 1.86189 14.4107 2.04084 13.7659 2.12773C14.4293 1.70777 14.9356 1.04783 15.1737 0.25239C14.5551 0.643388 13.8722 0.919569 13.1444 1.07369C12.5571 0.410651 11.72 0 10.8068 0C9.03512 0 7.60878 1.52468 7.60878 3.39382C7.60878 3.66276 7.63024 3.92136 7.68293 4.16754C5.02244 4.02997 2.66829 2.67803 1.08683 0.618563C0.810732 1.12645 0.648781 1.70777 0.648781 2.33357C0.648781 3.50864 1.21951 4.55026 2.07024 5.15331C1.5561 5.14297 1.05171 4.98471 0.62439 4.73542C0.62439 4.74576 0.62439 4.75921 0.62439 4.77266C0.62439 6.42147 1.73366 7.79099 3.18829 8.10648C2.9278 8.18199 2.6439 8.2182 2.34927 8.2182C2.14439 8.2182 1.93756 8.20578 1.74341 8.16027C2.15805 9.50394 3.33463 10.4918 4.73366 10.5238C3.64488 11.4269 2.26244 11.9709 0.765854 11.9709C0.503415 11.9709 0.251707 11.9585 0 11.9244C1.41756 12.8936 3.09756 13.447 4.90927 13.447C10.798 13.447 14.0176 8.27509 14.0176 3.79206C14.0176 3.64207 14.0127 3.49726 14.0059 3.35348C14.641 2.87559 15.1746 2.27875 15.6098 1.59192Z" fill="#444444"/>
</svg>
