<svg width="1799" height="669" viewBox="0 0 1799 669" fill="none" xmlns="http://www.w3.org/2000/svg">
<g filter="url(#filter0_d_58_1315)">
<rect x="61" y="92" width="130" height="130" fill="white"/>
</g>
<g clip-path="url(#clip0_58_1315)">
<path d="M153.883 180.1C154.871 180.1 155.406 180.834 155.406 181.742V183.465H154.744V181.849C154.744 181.255 154.451 180.734 153.836 180.734C153.242 180.734 152.942 181.234 152.942 181.836V183.465H152.281V181.835C152.281 181.235 151.981 180.734 151.372 180.734C150.758 180.734 150.484 181.254 150.484 181.849V183.465H149.824V181.749C149.824 180.834 150.344 180.099 151.326 180.099C151.98 180.099 152.454 180.433 152.621 180.941C152.801 180.433 153.262 180.1 153.883 180.1ZM147.498 182.904C148.105 182.904 148.439 182.376 148.439 181.769V180.193H149.1V181.849C149.1 182.797 148.526 183.545 147.498 183.545C146.483 183.545 145.908 182.79 145.908 181.842V180.193H146.569V181.776C146.569 182.376 146.897 182.904 147.498 182.904ZM144.044 183.538C143.436 183.538 142.969 183.298 142.714 182.811L143.222 182.531C143.389 182.857 143.656 182.978 144.017 182.978C144.391 182.978 144.678 182.824 144.678 182.537C144.678 181.849 142.802 182.37 142.802 181.121C142.802 180.547 143.309 180.126 144.024 180.126C144.631 180.126 145.045 180.406 145.252 180.787L144.745 181.075C144.605 180.787 144.338 180.687 144.037 180.687C143.73 180.687 143.463 180.847 143.463 181.107C143.463 181.776 145.339 181.288 145.339 182.523C145.339 183.144 144.739 183.538 144.044 183.538ZM139.505 184.967H138.843V181.822C138.843 180.847 139.598 180.112 140.586 180.112C140.813 180.109 141.038 180.15 141.248 180.235C141.459 180.319 141.65 180.444 141.812 180.604C141.974 180.763 142.102 180.952 142.189 181.162C142.277 181.371 142.322 181.595 142.322 181.822C142.322 182.811 141.608 183.545 140.612 183.545C140.172 183.545 139.772 183.351 139.504 183.058V184.968L139.505 184.967ZM140.586 182.924C141.194 182.924 141.661 182.424 141.661 181.829C141.661 181.228 141.194 180.741 140.586 180.741C139.972 180.741 139.505 181.228 139.505 181.829C139.505 182.423 139.972 182.924 140.586 182.924ZM137.306 180.193H137.966V183.465H137.306V180.193ZM146.223 177.207C141.172 177.207 137.319 173.322 137.319 168.594C137.319 163.9 141.172 160.014 146.223 160.014C151.273 160.014 155.127 163.9 155.127 168.594C155.127 173.322 151.274 177.207 146.223 177.207ZM146.223 171.735C148.068 171.735 149.299 170.31 149.299 168.627C149.299 166.911 148.069 165.486 146.223 165.486C144.377 165.486 143.147 166.911 143.147 168.626C143.147 170.31 144.377 171.735 146.223 171.735ZM126.314 184.654C122.299 184.654 119.384 182.874 117.895 179.7L122.72 177.11C123.238 178.21 124.21 179.344 126.217 179.344C128.321 179.344 129.714 178.016 129.876 175.685C129.098 176.365 127.868 176.883 126.023 176.883C121.522 176.883 117.895 173.419 117.895 168.562C117.895 163.867 121.749 160.047 126.8 160.047C131.98 160.047 135.704 163.641 135.704 168.594V175.005C135.704 180.833 131.656 184.654 126.314 184.654ZM126.702 171.411C128.451 171.411 129.778 170.213 129.778 168.432C129.778 166.684 128.451 165.518 126.702 165.518C124.986 165.518 123.627 166.684 123.627 168.432C123.627 170.213 124.987 171.411 126.702 171.411ZM108.009 177.207C102.958 177.207 99.105 173.322 99.105 168.594C99.105 163.9 102.958 160.014 108.009 160.014C113.059 160.014 116.913 163.9 116.913 168.594C116.913 173.322 113.06 177.207 108.009 177.207ZM108.009 171.735C109.854 171.735 111.085 170.31 111.085 168.627C111.085 166.911 109.855 165.486 108.009 165.486C106.163 165.486 104.933 166.911 104.933 168.626C104.933 170.31 106.163 171.735 108.009 171.735ZM91 153.085H96.828V176.721H91V153.085ZM161.734 162C161.734 162.53 161.523 163.039 161.148 163.414C160.773 163.789 160.264 164 159.734 164C159.204 164 158.695 163.789 158.32 163.414C157.945 163.039 157.734 162.53 157.734 162C157.734 161.47 157.945 160.961 158.32 160.586C158.695 160.211 159.204 160 159.734 160C160.264 160 160.773 160.211 161.148 160.586C161.523 160.961 161.734 161.47 161.734 162Z" fill="#113441"/>
<path fill-rule="evenodd" clip-rule="evenodd" d="M145.79 139.665C151.536 145.411 154.96 153.076 155.406 161.19C153.708 159.203 151.402 157.832 148.845 157.29C147.68 151.905 144.895 147.006 140.865 143.25C136.835 139.493 131.752 137.059 126.299 136.275C120.846 135.491 115.283 136.394 110.358 138.862C105.433 141.331 101.38 145.247 98.7449 150.085H92.0859C94.1994 145.115 97.5004 140.739 101.699 137.343C105.898 133.946 110.867 131.631 116.169 130.603C121.471 129.574 126.944 129.862 132.109 131.442C137.273 133.022 141.971 135.846 145.79 139.665Z" fill="#FFD43E"/>
<path fill-rule="evenodd" clip-rule="evenodd" d="M141.547 143.908C145.215 147.575 147.748 152.221 148.845 157.29C148.003 157.11 147.125 157.014 146.223 157.014C145.003 157.014 143.829 157.188 142.726 157.513C141.496 152.964 138.772 148.961 134.992 146.148C131.212 143.334 126.595 141.874 121.885 142.002C117.175 142.13 112.644 143.839 109.022 146.853C105.4 149.867 102.897 154.012 101.916 158.621C101.166 159.053 100.466 159.565 99.8281 160.15V150.085H98.7441C100.752 146.398 103.592 143.231 107.039 140.834C110.485 138.437 114.444 136.876 118.599 136.277C122.754 135.677 126.991 136.055 130.975 137.379C134.959 138.704 138.579 140.939 141.547 143.908Z" fill="#EE8E1D"/>
<path d="M137.306 160.888C136.846 157.653 135.342 154.656 133.023 152.354C130.704 150.051 127.697 148.569 124.458 148.133C121.22 147.697 117.928 148.33 115.082 149.936C112.236 151.542 109.993 154.034 108.693 157.032C112.253 157.224 115.363 158.905 117.401 161.443C119.573 158.753 122.964 157.047 126.8 157.047C130.91 157.047 134.442 158.849 136.567 161.785C136.798 161.474 137.045 161.175 137.306 160.888Z" fill="#971C1C"/>
<path fill-rule="evenodd" clip-rule="evenodd" d="M142.725 157.513C140.644 158.121 138.769 159.288 137.305 160.888C136.845 157.653 135.341 154.657 133.022 152.355C130.703 150.053 127.696 148.571 124.458 148.135C121.22 147.698 117.928 148.331 115.082 149.937C112.236 151.543 109.993 154.034 108.693 157.032C108.465 157.02 108.237 157.014 108.009 157.014C105.772 157.014 103.692 157.6 101.916 158.621C102.898 154.013 105.401 149.869 109.023 146.855C112.645 143.841 117.175 142.133 121.885 142.005C126.595 141.877 131.211 143.337 134.991 146.15C138.771 148.963 141.495 152.965 142.726 157.513H142.725Z" fill="#D62727"/>
</g>
<g filter="url(#filter1_d_58_1315)">
<rect x="281" y="12" width="145" height="145" fill="white"/>
</g>
<g clip-path="url(#clip1_58_1315)">
<path d="M380.883 107.1C381.871 107.1 382.406 107.834 382.406 108.742V110.465H381.744V108.849C381.744 108.255 381.451 107.734 380.836 107.734C380.242 107.734 379.942 108.234 379.942 108.836V110.465H379.281V108.835C379.281 108.235 378.981 107.734 378.372 107.734C377.758 107.734 377.484 108.254 377.484 108.849V110.465H376.824V108.749C376.824 107.834 377.344 107.099 378.326 107.099C378.98 107.099 379.454 107.433 379.621 107.941C379.801 107.433 380.262 107.1 380.883 107.1ZM374.498 109.904C375.105 109.904 375.439 109.376 375.439 108.769V107.193H376.1V108.849C376.1 109.797 375.526 110.545 374.498 110.545C373.483 110.545 372.908 109.79 372.908 108.842V107.193H373.569V108.776C373.569 109.376 373.897 109.904 374.498 109.904ZM371.044 110.538C370.436 110.538 369.969 110.298 369.714 109.811L370.222 109.531C370.389 109.857 370.656 109.978 371.017 109.978C371.391 109.978 371.678 109.824 371.678 109.537C371.678 108.849 369.802 109.37 369.802 108.121C369.802 107.547 370.309 107.126 371.024 107.126C371.631 107.126 372.045 107.406 372.252 107.787L371.745 108.075C371.605 107.787 371.338 107.687 371.037 107.687C370.73 107.687 370.463 107.847 370.463 108.107C370.463 108.776 372.339 108.288 372.339 109.523C372.339 110.144 371.739 110.538 371.044 110.538ZM366.505 111.967H365.843V108.822C365.843 107.847 366.598 107.112 367.586 107.112C367.813 107.109 368.038 107.15 368.248 107.235C368.459 107.319 368.65 107.444 368.812 107.604C368.974 107.763 369.102 107.952 369.189 108.162C369.277 108.371 369.322 108.595 369.322 108.822C369.322 109.811 368.608 110.545 367.612 110.545C367.172 110.545 366.772 110.351 366.504 110.058V111.968L366.505 111.967ZM367.586 109.924C368.194 109.924 368.661 109.424 368.661 108.829C368.661 108.228 368.194 107.741 367.586 107.741C366.972 107.741 366.505 108.228 366.505 108.829C366.505 109.423 366.972 109.924 367.586 109.924ZM364.306 107.193H364.966V110.465H364.306V107.193ZM373.223 104.207C368.172 104.207 364.319 100.322 364.319 95.594C364.319 90.9 368.172 87.014 373.223 87.014C378.273 87.014 382.127 90.9 382.127 95.594C382.127 100.322 378.274 104.207 373.223 104.207ZM373.223 98.735C375.068 98.735 376.299 97.31 376.299 95.627C376.299 93.911 375.069 92.486 373.223 92.486C371.377 92.486 370.147 93.911 370.147 95.626C370.147 97.31 371.377 98.735 373.223 98.735ZM353.314 111.654C349.299 111.654 346.384 109.874 344.895 106.7L349.72 104.11C350.238 105.21 351.21 106.344 353.217 106.344C355.321 106.344 356.714 105.016 356.876 102.685C356.098 103.365 354.868 103.883 353.023 103.883C348.522 103.883 344.895 100.419 344.895 95.562C344.895 90.867 348.749 87.047 353.8 87.047C358.98 87.047 362.704 90.641 362.704 95.594V102.005C362.704 107.833 358.656 111.654 353.314 111.654ZM353.702 98.411C355.451 98.411 356.778 97.213 356.778 95.432C356.778 93.684 355.451 92.518 353.702 92.518C351.986 92.518 350.627 93.684 350.627 95.432C350.627 97.213 351.987 98.411 353.702 98.411ZM335.009 104.207C329.958 104.207 326.105 100.322 326.105 95.594C326.105 90.9 329.958 87.014 335.009 87.014C340.059 87.014 343.913 90.9 343.913 95.594C343.913 100.322 340.06 104.207 335.009 104.207ZM335.009 98.735C336.854 98.735 338.085 97.31 338.085 95.627C338.085 93.911 336.855 92.486 335.009 92.486C333.163 92.486 331.933 93.911 331.933 95.626C331.933 97.31 333.163 98.735 335.009 98.735ZM318 80.085H323.828V103.721H318V80.085ZM388.734 89C388.734 89.5304 388.523 90.0391 388.148 90.4142C387.773 90.7892 387.264 91 386.734 91C386.204 91 385.695 90.7892 385.32 90.4142C384.945 90.0391 384.734 89.5304 384.734 89C384.734 88.4695 384.945 87.9608 385.32 87.5857C385.695 87.2107 386.204 87 386.734 87C387.264 87 387.773 87.2107 388.148 87.5857C388.523 87.9608 388.734 88.4695 388.734 89Z" fill="#113441"/>
<path fill-rule="evenodd" clip-rule="evenodd" d="M372.79 66.6651C378.536 72.4113 381.96 80.0758 382.406 88.1901C380.708 86.203 378.402 84.8321 375.845 84.2901C374.68 78.9054 371.895 74.006 367.865 70.2495C363.835 66.4931 358.752 64.0594 353.299 63.2752C347.846 62.4909 342.283 63.3937 337.358 65.8622C332.433 68.3307 328.38 72.2469 325.745 77.0851H319.086C321.199 72.1149 324.5 67.7394 328.699 64.3426C332.898 60.9457 337.867 58.6314 343.169 57.6027C348.471 56.574 353.944 56.8623 359.109 58.4423C364.273 60.0224 368.971 62.8459 372.79 66.6651Z" fill="#FFD43E"/>
<path fill-rule="evenodd" clip-rule="evenodd" d="M368.547 70.908C372.215 74.5752 374.748 79.221 375.845 84.29C375.003 84.11 374.125 84.014 373.223 84.014C372.003 84.014 370.829 84.188 369.726 84.513C368.496 79.9642 365.772 75.9611 361.992 73.1478C358.212 70.3344 353.595 68.8743 348.885 69.0021C344.175 69.13 339.644 70.8385 336.022 73.8529C332.4 76.8672 329.897 81.0121 328.916 85.621C328.166 86.0526 327.466 86.5654 326.828 87.15V77.085H325.744C327.752 73.3983 330.592 70.2306 334.039 67.8336C337.485 65.4365 341.444 63.8762 345.599 63.2766C349.754 62.677 353.991 63.0545 357.975 64.3793C361.959 65.704 365.579 67.9395 368.547 70.908Z" fill="#EE8E1D"/>
<path d="M364.306 87.8879C363.846 84.6526 362.342 81.656 360.023 79.3537C357.704 77.0514 354.697 75.5694 351.458 75.1329C348.22 74.6965 344.928 75.3296 342.082 76.9359C339.236 78.5421 336.993 81.0338 335.693 84.0319C339.253 84.2239 342.363 85.9049 344.401 88.4429C346.573 85.7529 349.964 84.0469 353.8 84.0469C357.91 84.0469 361.442 85.8489 363.567 88.7849C363.798 88.4739 364.045 88.1749 364.306 87.8879Z" fill="#971C1C"/>
<path fill-rule="evenodd" clip-rule="evenodd" d="M369.725 84.5129C367.644 85.1208 365.769 86.2882 364.305 87.8879C363.845 84.653 362.341 81.6568 360.022 79.3549C357.703 77.0529 354.696 75.5711 351.458 75.1347C348.22 74.6983 344.928 75.3312 342.082 76.9371C339.236 78.5431 336.993 81.0343 335.693 84.0319C335.465 84.0198 335.237 84.0138 335.009 84.0139C332.772 84.0139 330.692 84.5999 328.916 85.6209C329.898 81.0127 332.401 76.8686 336.023 73.8549C339.645 70.8413 344.175 69.1332 348.885 69.0053C353.595 68.8774 358.211 70.3372 361.991 73.1499C365.771 75.9626 368.495 79.9648 369.726 84.5129H369.725Z" fill="#D62727"/>
</g>
<g filter="url(#filter2_d_58_1315)">
<rect x="266" y="255" width="100" height="100" fill="white"/>
</g>
<g clip-path="url(#clip2_58_1315)">
<path d="M334.917 320.525C335.617 320.525 335.997 321.046 335.997 321.69V322.912H335.527V321.766C335.527 321.344 335.32 320.975 334.884 320.975C334.462 320.975 334.25 321.33 334.25 321.756V322.912H333.781V321.756C333.781 321.33 333.568 320.975 333.136 320.975C332.701 320.975 332.507 321.344 332.507 321.766V322.912H332.039V321.695C332.039 321.046 332.407 320.525 333.104 320.525C333.568 320.525 333.904 320.762 334.022 321.122C334.15 320.762 334.477 320.525 334.917 320.525ZM330.389 322.514C330.82 322.514 331.057 322.139 331.057 321.709V320.591H331.525V321.766C331.525 322.438 331.118 322.968 330.389 322.968C329.67 322.968 329.262 322.433 329.262 321.761V320.591H329.731V321.714C329.731 322.139 329.963 322.514 330.389 322.514ZM327.94 322.963C327.509 322.963 327.178 322.793 326.997 322.448L327.357 322.249C327.476 322.48 327.665 322.566 327.921 322.566C328.186 322.566 328.39 322.457 328.39 322.254C328.39 321.766 327.059 322.135 327.059 321.249C327.059 320.842 327.419 320.544 327.926 320.544C328.356 320.544 328.65 320.742 328.797 321.013L328.437 321.217C328.338 321.013 328.149 320.942 327.935 320.942C327.718 320.942 327.528 321.055 327.528 321.24C327.528 321.714 328.858 321.368 328.858 322.244C328.858 322.684 328.433 322.963 327.94 322.963ZM324.722 323.977H324.252V321.747C324.252 321.055 324.788 320.534 325.488 320.534C325.649 320.532 325.809 320.561 325.958 320.621C326.107 320.681 326.243 320.77 326.357 320.883C326.472 320.995 326.563 321.13 326.625 321.278C326.687 321.427 326.719 321.586 326.719 321.747C326.719 322.448 326.213 322.968 325.507 322.968C325.195 322.968 324.911 322.831 324.721 322.623V323.977L324.722 323.977ZM325.488 322.528C325.919 322.528 326.25 322.173 326.25 321.751C326.25 321.325 325.919 320.98 325.488 320.98C325.053 320.98 324.722 321.325 324.722 321.751C324.722 322.173 325.053 322.528 325.488 322.528ZM323.162 320.591H323.63V322.912H323.162V320.591ZM329.485 318.474C325.904 318.474 323.172 315.719 323.172 312.367C323.172 309.038 325.904 306.283 329.485 306.283C333.066 306.283 335.799 309.038 335.799 312.367C335.799 315.719 333.067 318.474 329.485 318.474ZM329.485 314.594C330.794 314.594 331.666 313.583 331.666 312.39C331.666 311.173 330.794 310.163 329.485 310.163C328.176 310.163 327.304 311.173 327.304 312.389C327.304 313.583 328.176 314.594 329.485 314.594ZM315.368 323.755C312.521 323.755 310.454 322.492 309.398 320.242L312.82 318.405C313.187 319.185 313.876 319.989 315.299 319.989C316.791 319.989 317.779 319.048 317.894 317.395C317.342 317.877 316.47 318.244 315.162 318.244C311.97 318.244 309.398 315.788 309.398 312.344C309.398 309.015 312.131 306.306 315.713 306.306C319.386 306.306 322.026 308.855 322.026 312.367V316.913C322.026 321.045 319.156 323.755 315.368 323.755ZM315.643 314.364C316.883 314.364 317.824 313.515 317.824 312.252C317.824 311.012 316.883 310.186 315.643 310.186C314.426 310.186 313.463 311.012 313.463 312.252C313.463 313.515 314.427 314.364 315.643 314.364ZM302.388 318.474C298.806 318.474 296.074 315.719 296.074 312.367C296.074 309.038 298.806 306.283 302.388 306.283C305.969 306.283 308.702 309.038 308.702 312.367C308.702 315.719 305.97 318.474 302.388 318.474ZM302.388 314.594C303.696 314.594 304.569 313.583 304.569 312.39C304.569 311.173 303.697 310.163 302.388 310.163C301.079 310.163 300.207 311.173 300.207 312.389C300.207 313.583 301.079 314.594 302.388 314.594ZM290.327 301.369H294.46V318.129H290.327V301.369ZM340.484 307.691C340.484 308.067 340.335 308.428 340.069 308.694C339.803 308.96 339.442 309.109 339.066 309.109C338.69 309.109 338.329 308.96 338.063 308.694C337.797 308.428 337.648 308.067 337.648 307.691C337.648 307.315 337.797 306.954 338.063 306.688C338.329 306.422 338.69 306.273 339.066 306.273C339.442 306.273 339.803 306.422 340.069 306.688C340.335 306.954 340.484 307.315 340.484 307.691Z" fill="#113441"/>
<path fill-rule="evenodd" clip-rule="evenodd" d="M329.178 291.853C333.253 295.928 335.681 301.363 335.997 307.117C334.793 305.708 333.157 304.736 331.344 304.351C330.518 300.533 328.544 297.059 325.686 294.395C322.828 291.732 319.224 290.006 315.357 289.45C311.491 288.894 307.546 289.534 304.054 291.284C300.561 293.035 297.688 295.812 295.819 299.242H291.097C292.596 295.718 294.937 292.615 297.914 290.207C300.891 287.798 304.414 286.157 308.174 285.427C311.934 284.698 315.815 284.902 319.477 286.023C323.139 287.143 326.47 289.145 329.178 291.853Z" fill="#FFD43E"/>
<path fill-rule="evenodd" clip-rule="evenodd" d="M326.17 294.862C328.77 297.462 330.567 300.757 331.345 304.351C330.747 304.223 330.125 304.155 329.485 304.155C328.62 304.155 327.788 304.279 327.006 304.509C326.134 301.284 324.202 298.445 321.521 296.45C318.841 294.455 315.567 293.42 312.227 293.511C308.887 293.601 305.675 294.813 303.106 296.95C300.538 299.088 298.763 302.027 298.068 305.295C297.536 305.601 297.039 305.965 296.587 306.379V299.242H295.818C297.242 296.628 299.256 294.382 301.7 292.682C304.144 290.982 306.951 289.876 309.897 289.451C312.843 289.026 315.848 289.293 318.673 290.233C321.498 291.172 324.065 292.757 326.17 294.862Z" fill="#EE8E1D"/>
<path d="M323.162 306.902C322.836 304.608 321.77 302.483 320.126 300.851C318.481 299.218 316.349 298.167 314.052 297.858C311.756 297.549 309.421 297.997 307.403 299.136C305.385 300.275 303.795 302.042 302.873 304.168C305.397 304.304 307.603 305.496 309.048 307.296C310.588 305.389 312.992 304.179 315.713 304.179C318.627 304.179 321.131 305.457 322.638 307.538C322.802 307.318 322.977 307.106 323.162 306.902Z" fill="#971C1C"/>
<path fill-rule="evenodd" clip-rule="evenodd" d="M327.005 304.509C325.529 304.94 324.199 305.768 323.161 306.902C322.835 304.608 321.769 302.484 320.124 300.852C318.48 299.219 316.348 298.169 314.052 297.859C311.755 297.55 309.421 297.998 307.403 299.137C305.386 300.276 303.795 302.042 302.873 304.168C302.711 304.159 302.55 304.155 302.388 304.155C300.802 304.155 299.327 304.571 298.067 305.295C298.764 302.027 300.539 299.089 303.107 296.952C305.675 294.815 308.887 293.603 312.227 293.513C315.567 293.422 318.84 294.457 321.521 296.452C324.201 298.446 326.133 301.284 327.005 304.509H327.005Z" fill="#D62727"/>
</g>
<g filter="url(#filter3_d_58_1315)">
<rect x="54" y="366" width="130" height="130" fill="white"/>
</g>
<g clip-path="url(#clip3_58_1315)">
<path d="M146.556 454.1C147.544 454.1 148.079 454.834 148.079 455.742V457.465H147.417V455.849C147.417 455.255 147.124 454.734 146.509 454.734C145.915 454.734 145.615 455.234 145.615 455.836V457.465H144.954V455.835C144.954 455.235 144.654 454.734 144.045 454.734C143.431 454.734 143.157 455.254 143.157 455.849V457.465H142.497V455.749C142.497 454.834 143.017 454.099 143.999 454.099C144.653 454.099 145.127 454.433 145.294 454.941C145.474 454.433 145.935 454.1 146.556 454.1ZM140.171 456.904C140.778 456.904 141.112 456.376 141.112 455.769V454.193H141.773V455.849C141.773 456.797 141.199 457.545 140.171 457.545C139.156 457.545 138.581 456.79 138.581 455.842V454.193H139.242V455.776C139.242 456.376 139.57 456.904 140.171 456.904ZM136.717 457.538C136.109 457.538 135.642 457.298 135.387 456.811L135.895 456.531C136.062 456.857 136.329 456.978 136.69 456.978C137.064 456.978 137.351 456.824 137.351 456.537C137.351 455.849 135.475 456.37 135.475 455.121C135.475 454.547 135.982 454.126 136.697 454.126C137.304 454.126 137.718 454.406 137.925 454.787L137.418 455.075C137.278 454.787 137.011 454.687 136.71 454.687C136.403 454.687 136.136 454.847 136.136 455.107C136.136 455.776 138.012 455.288 138.012 456.523C138.012 457.144 137.412 457.538 136.717 457.538ZM132.178 458.967H131.516V455.822C131.516 454.847 132.271 454.112 133.259 454.112C133.486 454.109 133.711 454.15 133.921 454.235C134.132 454.319 134.323 454.444 134.485 454.604C134.646 454.763 134.775 454.952 134.862 455.162C134.95 455.371 134.995 455.595 134.995 455.822C134.995 456.811 134.281 457.545 133.285 457.545C132.845 457.545 132.445 457.351 132.177 457.058V458.968L132.178 458.967ZM133.259 456.924C133.867 456.924 134.334 456.424 134.334 455.829C134.334 455.228 133.867 454.741 133.259 454.741C132.645 454.741 132.178 455.228 132.178 455.829C132.178 456.423 132.645 456.924 133.259 456.924ZM129.979 454.193H130.639V457.465H129.979V454.193ZM138.896 451.207C133.845 451.207 129.992 447.322 129.992 442.594C129.992 437.9 133.845 434.014 138.896 434.014C143.946 434.014 147.8 437.9 147.8 442.594C147.8 447.322 143.947 451.207 138.896 451.207ZM138.896 445.735C140.741 445.735 141.972 444.31 141.972 442.627C141.972 440.911 140.742 439.486 138.896 439.486C137.05 439.486 135.82 440.911 135.82 442.626C135.82 444.31 137.05 445.735 138.896 445.735ZM118.987 458.654C114.972 458.654 112.057 456.874 110.568 453.7L115.393 451.11C115.911 452.21 116.883 453.344 118.89 453.344C120.994 453.344 122.387 452.016 122.549 449.685C121.771 450.365 120.541 450.883 118.696 450.883C114.195 450.883 110.568 447.419 110.568 442.562C110.568 437.867 114.422 434.047 119.473 434.047C124.653 434.047 128.377 437.641 128.377 442.594V449.005C128.377 454.833 124.329 458.654 118.987 458.654ZM119.375 445.411C121.124 445.411 122.451 444.213 122.451 442.432C122.451 440.684 121.124 439.518 119.375 439.518C117.659 439.518 116.3 440.684 116.3 442.432C116.3 444.213 117.66 445.411 119.375 445.411ZM100.682 451.207C95.6309 451.207 91.7779 447.322 91.7779 442.594C91.7779 437.9 95.6309 434.014 100.682 434.014C105.732 434.014 109.586 437.9 109.586 442.594C109.586 447.322 105.733 451.207 100.682 451.207ZM100.682 445.735C102.527 445.735 103.758 444.31 103.758 442.627C103.758 440.911 102.528 439.486 100.682 439.486C98.8359 439.486 97.6059 440.911 97.6059 442.626C97.6059 444.31 98.8359 445.735 100.682 445.735ZM83.6729 427.085H89.5009V450.721H83.6729V427.085ZM154.407 436C154.407 436.53 154.196 437.039 153.821 437.414C153.446 437.789 152.937 438 152.407 438C151.876 438 151.368 437.789 150.993 437.414C150.618 437.039 150.407 436.53 150.407 436C150.407 435.47 150.618 434.961 150.993 434.586C151.368 434.211 151.876 434 152.407 434C152.937 434 153.446 434.211 153.821 434.586C154.196 434.961 154.407 435.47 154.407 436Z" fill="#113441"/>
<path fill-rule="evenodd" clip-rule="evenodd" d="M138.463 413.665C144.209 419.411 147.633 427.076 148.079 435.19C146.381 433.203 144.075 431.832 141.518 431.29C140.353 425.905 137.568 421.006 133.538 417.25C129.508 413.493 124.425 411.059 118.972 410.275C113.519 409.491 107.956 410.394 103.031 412.862C98.1054 415.331 94.0531 419.247 91.4178 424.085H84.7588C86.8722 419.115 90.1733 414.739 94.3722 411.343C98.5711 407.946 103.54 405.631 108.842 404.603C114.144 403.574 119.617 403.862 124.782 405.442C129.946 407.022 134.644 409.846 138.463 413.665Z" fill="#FFD43E"/>
<path fill-rule="evenodd" clip-rule="evenodd" d="M134.22 417.908C137.887 421.575 140.421 426.221 141.518 431.29C140.676 431.11 139.798 431.014 138.896 431.014C137.676 431.014 136.502 431.188 135.399 431.513C134.169 426.964 131.445 422.961 127.665 420.148C123.885 417.334 119.268 415.874 114.558 416.002C109.847 416.13 105.317 417.839 101.695 420.853C98.073 423.867 95.5702 428.012 94.589 432.621C93.839 433.053 93.1388 433.565 92.501 434.15V424.085H91.417C93.4251 420.398 96.2652 417.231 99.7118 414.834C103.158 412.437 107.116 410.876 111.271 410.277C115.427 409.677 119.664 410.055 123.648 411.379C127.632 412.704 131.251 414.939 134.22 417.908Z" fill="#EE8E1D"/>
<path d="M129.979 434.888C129.519 431.653 128.015 428.656 125.696 426.354C123.377 424.051 120.37 422.569 117.131 422.133C113.893 421.697 110.6 422.33 107.755 423.936C104.909 425.542 102.666 428.034 101.366 431.032C104.926 431.224 108.036 432.905 110.074 435.443C112.246 432.753 115.637 431.047 119.473 431.047C123.583 431.047 127.115 432.849 129.24 435.785C129.471 435.474 129.718 435.175 129.979 434.888Z" fill="#971C1C"/>
<path fill-rule="evenodd" clip-rule="evenodd" d="M135.398 431.513C133.316 432.121 131.442 433.288 129.978 434.888C129.518 431.653 128.014 428.657 125.695 426.355C123.376 424.053 120.369 422.571 117.131 422.135C113.893 421.698 110.6 422.331 107.755 423.937C104.909 425.543 102.666 428.034 101.366 431.032C101.138 431.02 100.91 431.014 100.682 431.014C98.4449 431.014 96.3649 431.6 94.5889 432.621C95.5708 428.013 98.074 423.869 101.696 420.855C105.318 417.841 109.848 416.133 114.558 416.005C119.268 415.877 123.884 417.337 127.664 420.15C131.444 422.963 134.168 426.965 135.399 431.513H135.398Z" fill="#D62727"/>
</g>
<g filter="url(#filter4_d_58_1315)">
<rect x="1290" y="35" width="125" height="125" fill="white"/>
</g>
<g clip-path="url(#clip4_58_1315)">
<path d="M1384.86 124.209C1386.03 124.209 1386.66 125.077 1386.66 126.15V128.186H1385.88V126.276C1385.88 125.574 1385.53 124.958 1384.81 124.958C1384.1 124.958 1383.75 125.549 1383.75 126.261V128.186H1382.97V126.26C1382.97 125.55 1382.61 124.958 1381.89 124.958C1381.17 124.958 1380.84 125.573 1380.84 126.276V128.186H1380.06V126.158C1380.06 125.077 1380.68 124.208 1381.84 124.208C1382.61 124.208 1383.17 124.603 1383.37 125.203C1383.58 124.603 1384.13 124.209 1384.86 124.209ZM1377.32 127.523C1378.03 127.523 1378.43 126.899 1378.43 126.182V124.319H1379.21V126.276C1379.21 127.396 1378.53 128.28 1377.32 128.28C1376.12 128.28 1375.44 127.388 1375.44 126.268V124.319H1376.22V126.19C1376.22 126.899 1376.61 127.523 1377.32 127.523ZM1373.23 128.272C1372.52 128.272 1371.96 127.989 1371.66 127.413L1372.26 127.082C1372.46 127.467 1372.78 127.61 1373.2 127.61C1373.64 127.61 1373.98 127.428 1373.98 127.089C1373.98 126.276 1371.77 126.892 1371.77 125.416C1371.77 124.737 1372.37 124.24 1373.21 124.24C1373.93 124.24 1374.42 124.571 1374.66 125.021L1374.06 125.361C1373.9 125.021 1373.58 124.903 1373.23 124.903C1372.86 124.903 1372.55 125.092 1372.55 125.399C1372.55 126.19 1374.76 125.613 1374.76 127.073C1374.76 127.807 1374.06 128.272 1373.23 128.272ZM1367.87 129.961H1367.09V126.244C1367.09 125.092 1367.98 124.223 1369.15 124.223C1369.42 124.219 1369.68 124.268 1369.93 124.368C1370.18 124.468 1370.41 124.616 1370.6 124.804C1370.79 124.992 1370.94 125.216 1371.04 125.464C1371.15 125.711 1371.2 125.976 1371.2 126.244C1371.2 127.413 1370.35 128.28 1369.18 128.28C1368.66 128.28 1368.19 128.051 1367.87 127.705V129.962L1367.87 129.961ZM1369.15 127.547C1369.87 127.547 1370.42 126.956 1370.42 126.252C1370.42 125.542 1369.87 124.967 1369.15 124.967C1368.42 124.967 1367.87 125.542 1367.87 126.252C1367.87 126.954 1368.42 127.547 1369.15 127.547ZM1365.27 124.319H1366.05V128.186H1365.27V124.319ZM1375.81 120.79C1369.84 120.79 1365.29 116.199 1365.29 110.611C1365.29 105.064 1369.84 100.471 1375.81 100.471C1381.78 100.471 1386.33 105.064 1386.33 110.611C1386.33 116.199 1381.78 120.79 1375.81 120.79ZM1375.81 114.323C1377.99 114.323 1379.44 112.639 1379.44 110.65C1379.44 108.622 1377.99 106.938 1375.81 106.938C1373.63 106.938 1372.17 108.622 1372.17 110.649C1372.17 112.639 1373.63 114.323 1375.81 114.323ZM1352.28 129.591C1347.54 129.591 1344.09 127.487 1342.33 123.736L1348.03 120.675C1348.64 121.975 1349.79 123.316 1352.17 123.316C1354.65 123.316 1356.3 121.746 1356.49 118.991C1355.57 119.795 1354.12 120.407 1351.94 120.407C1346.62 120.407 1342.33 116.313 1342.33 110.573C1342.33 105.025 1346.89 100.51 1352.85 100.51C1358.98 100.51 1363.38 104.758 1363.38 110.611V118.188C1363.38 125.075 1358.59 129.591 1352.28 129.591ZM1352.74 113.94C1354.81 113.94 1356.37 112.524 1356.37 110.42C1356.37 108.354 1354.81 106.976 1352.74 106.976C1350.71 106.976 1349.1 108.354 1349.1 110.42C1349.1 112.524 1350.71 113.94 1352.74 113.94ZM1330.65 120.79C1324.68 120.79 1320.12 116.199 1320.12 110.611C1320.12 105.064 1324.68 100.471 1330.65 100.471C1336.62 100.471 1341.17 105.064 1341.17 110.611C1341.17 116.199 1336.62 120.79 1330.65 120.79ZM1330.65 114.323C1332.83 114.323 1334.28 112.639 1334.28 110.65C1334.28 108.622 1332.83 106.938 1330.65 106.938C1328.47 106.938 1327.01 108.622 1327.01 110.649C1327.01 112.639 1328.47 114.323 1330.65 114.323ZM1310.55 92.2822H1317.43V120.216H1310.55V92.2822ZM1394.14 102.818C1394.14 103.445 1393.89 104.046 1393.45 104.489C1393 104.933 1392.4 105.182 1391.78 105.182C1391.15 105.182 1390.55 104.933 1390.11 104.489C1389.66 104.046 1389.41 103.445 1389.41 102.818C1389.41 102.191 1389.66 101.59 1390.11 101.147C1390.55 100.704 1391.15 100.455 1391.78 100.455C1392.4 100.455 1393 100.704 1393.45 101.147C1393.89 101.59 1394.14 102.191 1394.14 102.818Z" fill="#113441"/>
<path fill-rule="evenodd" clip-rule="evenodd" d="M1375.3 76.4224C1382.09 83.2134 1386.13 92.2714 1386.66 101.861C1384.65 99.5127 1381.93 97.8925 1378.91 97.2519C1377.53 90.8882 1374.24 85.098 1369.48 80.6586C1364.71 76.2191 1358.71 73.343 1352.26 72.4161C1345.82 71.4893 1339.24 72.5562 1333.42 75.4735C1327.6 78.3909 1322.81 83.0191 1319.7 88.7369H1311.83C1314.33 82.8631 1318.23 77.692 1323.19 73.6776C1328.15 69.6632 1334.02 66.9281 1340.29 65.7123C1346.56 64.4965 1353.02 64.8373 1359.13 66.7046C1365.23 68.5719 1370.78 71.9088 1375.3 76.4224Z" fill="#FFD43E"/>
<path fill-rule="evenodd" clip-rule="evenodd" d="M1370.28 81.4367C1374.62 85.7707 1377.61 91.2612 1378.91 97.2518C1377.91 97.0391 1376.88 96.9256 1375.81 96.9256C1374.37 96.9256 1372.98 97.1313 1371.68 97.5154C1370.22 92.1394 1367 87.4086 1362.54 84.0837C1358.07 80.7588 1352.61 79.0332 1347.05 79.1843C1341.48 79.3354 1336.12 81.3546 1331.84 84.917C1327.56 88.4794 1324.61 93.3779 1323.45 98.8248C1322.56 99.3349 1321.73 99.9408 1320.98 100.632V88.7368H1319.7C1322.07 84.3797 1325.43 80.6361 1329.5 77.8032C1333.57 74.9704 1338.25 73.1264 1343.16 72.4177C1348.07 71.7091 1353.08 72.1553 1357.79 73.7209C1362.5 75.2865 1366.77 77.9284 1370.28 81.4367Z" fill="#EE8E1D"/>
<path d="M1365.27 101.504C1364.73 97.6804 1362.95 94.1389 1360.21 91.418C1357.47 88.6971 1353.91 86.9456 1350.09 86.4298C1346.26 85.9141 1342.37 86.6622 1339.01 88.5606C1335.64 90.4589 1332.99 93.4036 1331.46 96.9468C1335.66 97.1737 1339.34 99.1603 1341.75 102.16C1344.31 98.9807 1348.32 96.9645 1352.85 96.9645C1357.71 96.9645 1361.89 99.0942 1364.4 102.564C1364.67 102.196 1364.96 101.843 1365.27 101.504Z" fill="#971C1C"/>
<path fill-rule="evenodd" clip-rule="evenodd" d="M1371.68 97.5153C1369.22 98.2338 1367 99.6134 1365.27 101.504C1364.73 97.6809 1362.95 94.1399 1360.21 91.4194C1357.47 88.6989 1353.91 86.9477 1350.09 86.4319C1346.26 85.9162 1342.37 86.6641 1339.01 88.5621C1335.64 90.46 1332.99 93.4041 1331.46 96.9468C1331.19 96.9325 1330.92 96.9254 1330.65 96.9256C1328 96.9256 1325.55 97.6181 1323.45 98.8248C1324.61 93.3787 1327.57 88.4811 1331.85 84.9195C1336.13 81.3579 1341.48 79.3392 1347.05 79.1881C1352.61 79.037 1358.07 80.7622 1362.53 84.0863C1367 87.4103 1370.22 92.1402 1371.68 97.5153H1371.68Z" fill="#D62727"/>
</g>
<g filter="url(#filter5_d_58_1315)">
<rect x="1493" y="97" width="100" height="100" fill="white"/>
</g>
<g clip-path="url(#clip5_58_1315)">
<path d="M1566.74 165.813C1567.58 165.813 1568.04 166.44 1568.04 167.216V168.688H1567.47V167.307C1567.47 166.8 1567.22 166.354 1566.7 166.354C1566.19 166.354 1565.93 166.782 1565.93 167.296V168.688H1565.37V167.295C1565.37 166.783 1565.11 166.354 1564.59 166.354C1564.07 166.354 1563.83 166.799 1563.83 167.307V168.688H1563.27V167.222C1563.27 166.44 1563.71 165.812 1564.55 165.812C1565.11 165.812 1565.52 166.097 1565.66 166.531C1565.81 166.097 1566.21 165.813 1566.74 165.813ZM1561.28 168.209C1561.8 168.209 1562.08 167.758 1562.08 167.239V165.892H1562.65V167.307C1562.65 168.117 1562.16 168.757 1561.28 168.757C1560.41 168.757 1559.92 168.111 1559.92 167.301V165.892H1560.49V167.245C1560.49 167.758 1560.77 168.209 1561.28 168.209ZM1558.33 168.751C1557.81 168.751 1557.41 168.545 1557.19 168.129L1557.63 167.89C1557.77 168.169 1558 168.272 1558.31 168.272C1558.63 168.272 1558.87 168.14 1558.87 167.895C1558.87 167.307 1557.27 167.752 1557.27 166.685C1557.27 166.195 1557.7 165.835 1558.31 165.835C1558.83 165.835 1559.18 166.074 1559.36 166.4L1558.93 166.646C1558.81 166.4 1558.58 166.314 1558.32 166.314C1558.06 166.314 1557.83 166.451 1557.83 166.673C1557.83 167.245 1559.44 166.828 1559.44 167.883C1559.44 168.414 1558.92 168.751 1558.33 168.751ZM1554.45 169.972H1553.88V167.284C1553.88 166.451 1554.53 165.823 1555.37 165.823C1555.57 165.82 1555.76 165.856 1555.94 165.928C1556.12 166 1556.28 166.107 1556.42 166.243C1556.56 166.379 1556.67 166.541 1556.74 166.72C1556.82 166.898 1556.86 167.09 1556.86 167.284C1556.86 168.129 1556.25 168.757 1555.4 168.757C1555.02 168.757 1554.68 168.591 1554.45 168.34V169.973L1554.45 169.972ZM1555.37 168.226C1555.89 168.226 1556.29 167.799 1556.29 167.29C1556.29 166.777 1555.89 166.36 1555.37 166.36C1554.85 166.36 1554.45 166.777 1554.45 167.29C1554.45 167.798 1554.85 168.226 1555.37 168.226ZM1552.57 165.892H1553.13V168.688H1552.57V165.892ZM1560.19 163.34C1555.87 163.34 1552.58 160.02 1552.58 155.98C1552.58 151.969 1555.87 148.648 1560.19 148.648C1564.51 148.648 1567.8 151.969 1567.8 155.98C1567.8 160.02 1564.51 163.34 1560.19 163.34ZM1560.19 158.664C1561.77 158.664 1562.82 157.447 1562.82 156.008C1562.82 154.542 1561.77 153.324 1560.19 153.324C1558.61 153.324 1557.56 154.542 1557.56 156.008C1557.56 157.447 1558.61 158.664 1560.19 158.664ZM1543.18 169.704C1539.75 169.704 1537.26 168.183 1535.98 165.471L1540.11 163.258C1540.55 164.198 1541.38 165.167 1543.09 165.167C1544.89 165.167 1546.08 164.032 1546.22 162.04C1545.56 162.621 1544.51 163.064 1542.93 163.064C1539.08 163.064 1535.98 160.103 1535.98 155.953C1535.98 151.941 1539.28 148.676 1543.59 148.676C1548.02 148.676 1551.2 151.748 1551.2 155.98V161.459C1551.2 166.439 1547.74 169.704 1543.18 169.704ZM1543.51 158.387C1545 158.387 1546.14 157.364 1546.14 155.842C1546.14 154.348 1545 153.352 1543.51 153.352C1542.04 153.352 1540.88 154.348 1540.88 155.842C1540.88 157.364 1542.04 158.387 1543.51 158.387ZM1527.53 163.34C1523.22 163.34 1519.93 160.02 1519.93 155.98C1519.93 151.969 1523.22 148.648 1527.53 148.648C1531.85 148.648 1535.14 151.969 1535.14 155.98C1535.14 160.02 1531.85 163.34 1527.53 163.34ZM1527.53 158.664C1529.11 158.664 1530.16 157.447 1530.16 156.008C1530.16 154.542 1529.11 153.324 1527.53 153.324C1525.96 153.324 1524.91 154.542 1524.91 156.008C1524.91 157.447 1525.96 158.664 1527.53 158.664ZM1513 142.727H1517.98V162.925H1513V142.727ZM1573.45 150.345C1573.45 150.799 1573.27 151.233 1572.94 151.554C1572.62 151.874 1572.19 152.054 1571.74 152.054C1571.28 152.054 1570.85 151.874 1570.53 151.554C1570.21 151.233 1570.03 150.799 1570.03 150.345C1570.03 149.892 1570.21 149.457 1570.53 149.137C1570.85 148.816 1571.28 148.636 1571.74 148.636C1572.19 148.636 1572.62 148.816 1572.94 149.137C1573.27 149.457 1573.45 149.892 1573.45 150.345Z" fill="#113441"/>
<path fill-rule="evenodd" clip-rule="evenodd" d="M1559.82 131.259C1564.73 136.17 1567.66 142.719 1568.04 149.653C1566.59 147.955 1564.62 146.784 1562.43 146.321C1561.44 141.719 1559.06 137.532 1555.61 134.322C1552.17 131.112 1547.82 129.033 1543.16 128.362C1538.5 127.692 1533.75 128.464 1529.54 130.573C1525.33 132.683 1521.87 136.029 1519.62 140.164H1513.93C1515.73 135.916 1518.56 132.177 1522.14 129.275C1525.73 126.372 1529.98 124.394 1534.51 123.515C1539.04 122.636 1543.72 122.882 1548.13 124.233C1552.54 125.583 1556.56 127.996 1559.82 131.259Z" fill="#FFD43E"/>
<path fill-rule="evenodd" clip-rule="evenodd" d="M1556.19 134.885C1559.33 138.019 1561.49 141.989 1562.43 146.32C1561.71 146.167 1560.96 146.085 1560.19 146.085C1559.15 146.085 1558.14 146.233 1557.2 146.511C1556.15 142.624 1553.82 139.203 1550.59 136.799C1547.36 134.395 1543.42 133.147 1539.39 133.256C1535.37 133.366 1531.5 134.826 1528.4 137.401C1525.31 139.977 1523.17 143.519 1522.33 147.458C1521.69 147.827 1521.09 148.265 1520.54 148.764V140.163H1519.62C1521.33 137.013 1523.76 134.306 1526.71 132.258C1529.65 130.209 1533.03 128.876 1536.58 128.364C1540.13 127.851 1543.76 128.174 1547.16 129.306C1550.56 130.438 1553.66 132.348 1556.19 134.885Z" fill="#EE8E1D"/>
<path d="M1552.57 149.395C1552.18 146.63 1550.89 144.07 1548.91 142.102C1546.93 140.135 1544.36 138.868 1541.59 138.495C1538.82 138.123 1536.01 138.663 1533.58 140.036C1531.15 141.409 1529.23 143.538 1528.12 146.1C1531.16 146.264 1533.82 147.701 1535.56 149.869C1537.42 147.571 1540.31 146.113 1543.59 146.113C1547.1 146.113 1550.12 147.653 1551.94 150.162C1552.14 149.896 1552.35 149.64 1552.57 149.395Z" fill="#971C1C"/>
<path fill-rule="evenodd" clip-rule="evenodd" d="M1557.2 146.511C1555.42 147.031 1553.82 148.028 1552.57 149.395C1552.18 146.631 1550.89 144.07 1548.91 142.103C1546.93 140.136 1544.36 138.87 1541.59 138.497C1538.82 138.124 1536.01 138.665 1533.58 140.037C1531.15 141.41 1529.23 143.538 1528.12 146.1C1527.92 146.09 1527.73 146.084 1527.53 146.085C1525.62 146.085 1523.85 146.585 1522.33 147.458C1523.17 143.52 1525.31 139.979 1528.4 137.403C1531.5 134.828 1535.37 133.368 1539.39 133.259C1543.42 133.15 1547.36 134.397 1550.59 136.801C1553.82 139.204 1556.15 142.624 1557.2 146.511H1557.2Z" fill="#D62727"/>
</g>
<g filter="url(#filter6_d_58_1315)">
<rect x="1358" y="229" width="100" height="100" fill="white"/>
</g>
<g clip-path="url(#clip6_58_1315)">
<path d="M1431.74 297.813C1432.58 297.813 1433.04 298.44 1433.04 299.216V300.688H1432.47V299.307C1432.47 298.8 1432.22 298.354 1431.7 298.354C1431.19 298.354 1430.93 298.782 1430.93 299.296V300.688H1430.37V299.295C1430.37 298.783 1430.11 298.354 1429.59 298.354C1429.07 298.354 1428.83 298.799 1428.83 299.307V300.688H1428.27V299.222C1428.27 298.44 1428.71 297.812 1429.55 297.812C1430.11 297.812 1430.52 298.097 1430.66 298.531C1430.81 298.097 1431.21 297.813 1431.74 297.813ZM1426.28 300.209C1426.8 300.209 1427.08 299.758 1427.08 299.239V297.892H1427.65V299.307C1427.65 300.117 1427.16 300.757 1426.28 300.757C1425.41 300.757 1424.92 300.111 1424.92 299.301V297.892H1425.49V299.245C1425.49 299.758 1425.77 300.209 1426.28 300.209ZM1423.33 300.751C1422.81 300.751 1422.41 300.545 1422.19 300.129L1422.63 299.89C1422.77 300.169 1423 300.272 1423.31 300.272C1423.63 300.272 1423.87 300.14 1423.87 299.895C1423.87 299.307 1422.27 299.752 1422.27 298.685C1422.27 298.195 1422.7 297.835 1423.31 297.835C1423.83 297.835 1424.18 298.074 1424.36 298.4L1423.93 298.646C1423.81 298.4 1423.58 298.314 1423.32 298.314C1423.06 298.314 1422.83 298.451 1422.83 298.673C1422.83 299.245 1424.44 298.828 1424.44 299.883C1424.44 300.414 1423.92 300.751 1423.33 300.751ZM1419.45 301.972H1418.88V299.284C1418.88 298.451 1419.53 297.823 1420.37 297.823C1420.57 297.82 1420.76 297.856 1420.94 297.928C1421.12 298 1421.28 298.107 1421.42 298.243C1421.56 298.379 1421.67 298.541 1421.74 298.72C1421.82 298.898 1421.86 299.09 1421.86 299.284C1421.86 300.129 1421.25 300.757 1420.4 300.757C1420.02 300.757 1419.68 300.591 1419.45 300.34V301.973L1419.45 301.972ZM1420.37 300.226C1420.89 300.226 1421.29 299.799 1421.29 299.29C1421.29 298.777 1420.89 298.36 1420.37 298.36C1419.85 298.36 1419.45 298.777 1419.45 299.29C1419.45 299.798 1419.85 300.226 1420.37 300.226ZM1417.57 297.892H1418.13V300.688H1417.57V297.892ZM1425.19 295.34C1420.87 295.34 1417.58 292.02 1417.58 287.98C1417.58 283.969 1420.87 280.648 1425.19 280.648C1429.51 280.648 1432.8 283.969 1432.8 287.98C1432.8 292.02 1429.51 295.34 1425.19 295.34ZM1425.19 290.664C1426.77 290.664 1427.82 289.447 1427.82 288.008C1427.82 286.542 1426.77 285.324 1425.19 285.324C1423.61 285.324 1422.56 286.542 1422.56 288.008C1422.56 289.447 1423.61 290.664 1425.19 290.664ZM1408.18 301.704C1404.75 301.704 1402.26 300.183 1400.98 297.471L1405.11 295.258C1405.55 296.198 1406.38 297.167 1408.09 297.167C1409.89 297.167 1411.08 296.032 1411.22 294.04C1410.56 294.621 1409.51 295.064 1407.93 295.064C1404.08 295.064 1400.98 292.103 1400.98 287.953C1400.98 283.941 1404.28 280.676 1408.59 280.676C1413.02 280.676 1416.2 283.748 1416.2 287.98V293.459C1416.2 298.439 1412.74 301.704 1408.18 301.704ZM1408.51 290.387C1410 290.387 1411.14 289.364 1411.14 287.842C1411.14 286.348 1410 285.352 1408.51 285.352C1407.04 285.352 1405.88 286.348 1405.88 287.842C1405.88 289.364 1407.04 290.387 1408.51 290.387ZM1392.53 295.34C1388.22 295.34 1384.93 292.02 1384.93 287.98C1384.93 283.969 1388.22 280.648 1392.53 280.648C1396.85 280.648 1400.14 283.969 1400.14 287.98C1400.14 292.02 1396.85 295.34 1392.53 295.34ZM1392.53 290.664C1394.11 290.664 1395.16 289.447 1395.16 288.008C1395.16 286.542 1394.11 285.324 1392.53 285.324C1390.96 285.324 1389.91 286.542 1389.91 288.008C1389.91 289.447 1390.96 290.664 1392.53 290.664ZM1378 274.727H1382.98V294.925H1378V274.727ZM1438.45 282.345C1438.45 282.799 1438.27 283.233 1437.94 283.554C1437.62 283.874 1437.19 284.054 1436.74 284.054C1436.28 284.054 1435.85 283.874 1435.53 283.554C1435.21 283.233 1435.03 282.799 1435.03 282.345C1435.03 281.892 1435.21 281.457 1435.53 281.137C1435.85 280.816 1436.28 280.636 1436.74 280.636C1437.19 280.636 1437.62 280.816 1437.94 281.137C1438.27 281.457 1438.45 281.892 1438.45 282.345Z" fill="#113441"/>
<path fill-rule="evenodd" clip-rule="evenodd" d="M1424.82 263.259C1429.73 268.17 1432.66 274.719 1433.04 281.653C1431.59 279.955 1429.62 278.784 1427.43 278.321C1426.44 273.719 1424.06 269.532 1420.61 266.322C1417.17 263.112 1412.82 261.033 1408.16 260.362C1403.5 259.692 1398.75 260.464 1394.54 262.573C1390.33 264.683 1386.87 268.029 1384.62 272.164H1378.93C1380.73 267.916 1383.56 264.177 1387.14 261.275C1390.73 258.372 1394.98 256.394 1399.51 255.515C1404.04 254.636 1408.72 254.882 1413.13 256.233C1417.54 257.583 1421.56 259.996 1424.82 263.259Z" fill="#FFD43E"/>
<path fill-rule="evenodd" clip-rule="evenodd" d="M1421.19 266.885C1424.33 270.019 1426.49 273.989 1427.43 278.32C1426.71 278.167 1425.96 278.085 1425.19 278.085C1424.15 278.085 1423.14 278.233 1422.2 278.511C1421.15 274.624 1418.82 271.203 1415.59 268.799C1412.36 266.395 1408.42 265.147 1404.39 265.256C1400.37 265.366 1396.5 266.826 1393.4 269.401C1390.31 271.977 1388.17 275.519 1387.33 279.458C1386.69 279.827 1386.09 280.265 1385.54 280.764V272.163H1384.62C1386.33 269.013 1388.76 266.306 1391.71 264.258C1394.65 262.209 1398.03 260.876 1401.58 260.364C1405.13 259.851 1408.76 260.174 1412.16 261.306C1415.56 262.438 1418.66 264.348 1421.19 266.885Z" fill="#EE8E1D"/>
<path d="M1417.57 281.395C1417.18 278.63 1415.89 276.07 1413.91 274.102C1411.93 272.135 1409.36 270.868 1406.59 270.495C1403.82 270.123 1401.01 270.663 1398.58 272.036C1396.15 273.409 1394.23 275.538 1393.12 278.1C1396.16 278.264 1398.82 279.701 1400.56 281.869C1402.42 279.571 1405.31 278.113 1408.59 278.113C1412.1 278.113 1415.12 279.653 1416.94 282.162C1417.14 281.896 1417.35 281.64 1417.57 281.395Z" fill="#971C1C"/>
<path fill-rule="evenodd" clip-rule="evenodd" d="M1422.2 278.511C1420.42 279.031 1418.82 280.028 1417.57 281.395C1417.18 278.631 1415.89 276.07 1413.91 274.103C1411.93 272.136 1409.36 270.87 1406.59 270.497C1403.82 270.124 1401.01 270.665 1398.58 272.037C1396.15 273.41 1394.23 275.538 1393.12 278.1C1392.92 278.09 1392.73 278.084 1392.53 278.085C1390.62 278.085 1388.85 278.585 1387.33 279.458C1388.17 275.52 1390.31 271.979 1393.4 269.403C1396.5 266.828 1400.37 265.368 1404.39 265.259C1408.42 265.15 1412.36 266.397 1415.59 268.801C1418.82 271.204 1421.15 274.624 1422.2 278.511H1422.2Z" fill="#D62727"/>
</g>
<g filter="url(#filter7_d_58_1315)">
<rect x="1313" y="366" width="150" height="150" fill="white"/>
</g>
<g clip-path="url(#clip7_58_1315)">
<path d="M1421.69 468.031C1422.9 468.031 1423.55 468.925 1423.55 470.031V472.13H1422.74V470.161C1422.74 469.438 1422.39 468.803 1421.64 468.803C1420.91 468.803 1420.55 469.412 1420.55 470.146V472.13H1419.74V470.144C1419.74 469.413 1419.38 468.803 1418.63 468.803C1417.89 468.803 1417.55 469.437 1417.55 470.161V472.13H1416.75V470.04C1416.75 468.925 1417.38 468.03 1418.58 468.03C1419.38 468.03 1419.95 468.436 1420.16 469.055C1420.38 468.436 1420.94 468.031 1421.69 468.031ZM1413.92 471.447C1414.66 471.447 1415.06 470.803 1415.06 470.064V468.144H1415.87V470.161C1415.87 471.316 1415.17 472.227 1413.92 472.227C1412.68 472.227 1411.98 471.308 1411.98 470.153V468.144H1412.78V470.072C1412.78 470.803 1413.18 471.447 1413.92 471.447ZM1409.71 472.219C1408.97 472.219 1408.4 471.927 1408.09 471.333L1408.71 470.992C1408.91 471.389 1409.24 471.537 1409.68 471.537C1410.13 471.537 1410.48 471.349 1410.48 470.999C1410.48 470.161 1408.2 470.796 1408.2 469.275C1408.2 468.575 1408.81 468.062 1409.68 468.062C1410.42 468.062 1410.93 468.404 1411.18 468.868L1410.56 469.218C1410.39 468.868 1410.07 468.746 1409.7 468.746C1409.33 468.746 1409 468.941 1409 469.257C1409 470.072 1411.29 469.478 1411.29 470.982C1411.29 471.739 1410.55 472.219 1409.71 472.219ZM1404.18 473.96H1403.37V470.128C1403.37 468.941 1404.29 468.045 1405.5 468.045C1405.77 468.041 1406.05 468.092 1406.3 468.195C1406.56 468.298 1406.79 468.45 1406.99 468.644C1407.19 468.838 1407.34 469.069 1407.45 469.324C1407.56 469.579 1407.61 469.852 1407.61 470.128C1407.61 471.333 1406.74 472.227 1405.53 472.227C1404.99 472.227 1404.5 471.991 1404.18 471.634V473.961L1404.18 473.96ZM1405.5 471.471C1406.24 471.471 1406.81 470.862 1406.81 470.137C1406.81 469.405 1406.24 468.812 1405.5 468.812C1404.75 468.812 1404.18 469.405 1404.18 470.137C1404.18 470.861 1404.75 471.471 1405.5 471.471ZM1401.5 468.144H1402.3V472.13H1401.5V468.144ZM1412.36 464.507C1406.21 464.507 1401.52 459.774 1401.52 454.014C1401.52 448.296 1406.21 443.562 1412.36 443.562C1418.51 443.562 1423.21 448.296 1423.21 454.014C1423.21 459.774 1418.52 464.507 1412.36 464.507ZM1412.36 457.841C1414.61 457.841 1416.11 456.105 1416.11 454.055C1416.11 451.964 1414.61 450.228 1412.36 450.228C1410.11 450.228 1408.62 451.964 1408.62 454.053C1408.62 456.105 1410.11 457.841 1412.36 457.841ZM1388.11 473.578C1383.22 473.578 1379.67 471.41 1377.85 467.543L1383.73 464.388C1384.36 465.728 1385.55 467.11 1387.99 467.11C1390.55 467.11 1392.25 465.492 1392.45 462.652C1391.5 463.481 1390 464.112 1387.76 464.112C1382.27 464.112 1377.85 459.892 1377.85 453.975C1377.85 448.256 1382.55 443.603 1388.7 443.603C1395.01 443.603 1399.55 447.981 1399.55 454.014V461.824C1399.55 468.924 1394.62 473.578 1388.11 473.578ZM1388.58 457.446C1390.71 457.446 1392.33 455.987 1392.33 453.817C1392.33 451.688 1390.71 450.267 1388.58 450.267C1386.49 450.267 1384.84 451.688 1384.84 453.817C1384.84 455.987 1386.49 457.446 1388.58 457.446ZM1365.81 464.507C1359.66 464.507 1354.96 459.774 1354.96 454.014C1354.96 448.296 1359.66 443.562 1365.81 443.562C1371.96 443.562 1376.66 448.296 1376.66 454.014C1376.66 459.774 1371.96 464.507 1365.81 464.507ZM1365.81 457.841C1368.06 457.841 1369.56 456.105 1369.56 454.055C1369.56 451.964 1368.06 450.228 1365.81 450.228C1363.56 450.228 1362.06 451.964 1362.06 454.053C1362.06 456.105 1363.56 457.841 1365.81 457.841ZM1345.09 435.122H1352.19V463.915H1345.09V435.122ZM1431.26 445.982C1431.26 446.628 1431 447.248 1430.54 447.704C1430.09 448.161 1429.47 448.418 1428.82 448.418C1428.18 448.418 1427.56 448.161 1427.1 447.704C1426.64 447.248 1426.38 446.628 1426.38 445.982C1426.38 445.336 1426.64 444.716 1427.1 444.259C1427.56 443.802 1428.18 443.545 1428.82 443.545C1429.47 443.545 1430.09 443.802 1430.54 444.259C1431 444.716 1431.26 445.336 1431.26 445.982Z" fill="#113441"/>
<path fill-rule="evenodd" clip-rule="evenodd" d="M1411.83 418.774C1418.83 425.774 1423.01 435.111 1423.55 444.995C1421.48 442.575 1418.67 440.905 1415.56 440.244C1414.14 433.685 1410.74 427.716 1405.84 423.14C1400.93 418.564 1394.73 415.6 1388.09 414.644C1381.45 413.689 1374.67 414.789 1368.67 417.796C1362.67 420.803 1357.74 425.574 1354.53 431.467H1346.41C1348.99 425.413 1353.01 420.083 1358.12 415.945C1363.24 411.807 1369.29 408.987 1375.75 407.734C1382.21 406.481 1388.88 406.832 1395.17 408.757C1401.46 410.682 1407.18 414.121 1411.83 418.774Z" fill="#FFD43E"/>
<path fill-rule="evenodd" clip-rule="evenodd" d="M1406.67 423.943C1411.13 428.41 1414.22 434.069 1415.56 440.244C1414.53 440.025 1413.46 439.908 1412.36 439.908C1410.88 439.908 1409.45 440.12 1408.1 440.516C1406.6 434.975 1403.29 430.098 1398.68 426.671C1394.08 423.244 1388.45 421.465 1382.71 421.621C1376.98 421.777 1371.46 423.858 1367.04 427.53C1362.63 431.202 1359.58 436.251 1358.39 441.866C1357.47 442.391 1356.62 443.016 1355.84 443.728V431.467H1354.52C1356.97 426.976 1360.43 423.117 1364.63 420.197C1368.83 417.277 1373.65 415.377 1378.71 414.646C1383.77 413.916 1388.93 414.376 1393.79 415.989C1398.64 417.603 1403.05 420.326 1406.67 423.943Z" fill="#EE8E1D"/>
<path d="M1401.5 444.627C1400.94 440.686 1399.11 437.036 1396.28 434.231C1393.46 431.426 1389.79 429.621 1385.85 429.089C1381.9 428.558 1377.89 429.329 1374.43 431.286C1370.96 433.242 1368.23 436.278 1366.64 439.93C1370.98 440.164 1374.77 442.211 1377.25 445.303C1379.9 442.026 1384.03 439.948 1388.7 439.948C1393.71 439.948 1398.01 442.143 1400.6 445.72C1400.88 445.341 1401.18 444.977 1401.5 444.627Z" fill="#971C1C"/>
<path fill-rule="evenodd" clip-rule="evenodd" d="M1408.1 440.516C1405.57 441.256 1403.28 442.678 1401.5 444.627C1400.94 440.686 1399.11 437.037 1396.28 434.232C1393.46 431.428 1389.79 429.623 1385.85 429.091C1381.9 428.56 1377.89 429.331 1374.43 431.287C1370.96 433.243 1368.23 436.278 1366.64 439.93C1366.37 439.915 1366.09 439.908 1365.81 439.908C1363.09 439.908 1360.55 440.622 1358.39 441.866C1359.58 436.252 1362.63 431.204 1367.05 427.532C1371.46 423.861 1376.98 421.78 1382.71 421.625C1388.45 421.469 1394.08 423.247 1398.68 426.674C1403.28 430.1 1406.6 434.975 1408.1 440.516H1408.1Z" fill="#D62727"/>
</g>
<g filter="url(#filter8_d_58_1315)">
<rect x="1602" y="264" width="143" height="143" fill="white"/>
</g>
<g clip-path="url(#clip8_58_1315)">
<path d="M1707.6 363.031C1708.81 363.031 1709.46 363.925 1709.46 365.031V367.13H1708.65V365.161C1708.65 364.438 1708.29 363.803 1707.55 363.803C1706.82 363.803 1706.46 364.412 1706.46 365.146V367.13H1705.65V365.144C1705.65 364.413 1705.29 363.803 1704.54 363.803C1703.8 363.803 1703.46 364.437 1703.46 365.161V367.13H1702.66V365.04C1702.66 363.925 1703.29 363.03 1704.49 363.03C1705.28 363.03 1705.86 363.436 1706.07 364.055C1706.28 363.436 1706.85 363.031 1707.6 363.031ZM1699.82 366.447C1700.56 366.447 1700.97 365.803 1700.97 365.064V363.144H1701.78V365.161C1701.78 366.316 1701.08 367.227 1699.82 367.227C1698.59 367.227 1697.89 366.308 1697.89 365.153V363.144H1698.69V365.072C1698.69 365.803 1699.09 366.447 1699.82 366.447ZM1695.62 367.219C1694.88 367.219 1694.31 366.927 1694 366.333L1694.62 365.992C1694.82 366.389 1695.14 366.537 1695.58 366.537C1696.04 366.537 1696.39 366.349 1696.39 365.999C1696.39 365.161 1694.1 365.796 1694.1 364.275C1694.1 363.575 1694.72 363.062 1695.59 363.062C1696.33 363.062 1696.84 363.404 1697.09 363.868L1696.47 364.218C1696.3 363.868 1695.98 363.746 1695.61 363.746C1695.23 363.746 1694.91 363.941 1694.91 364.257C1694.91 365.072 1697.19 364.478 1697.19 365.982C1697.19 366.739 1696.46 367.219 1695.62 367.219ZM1690.09 368.96H1689.28V365.128C1689.28 363.941 1690.2 363.045 1691.4 363.045C1691.68 363.041 1691.96 363.092 1692.21 363.195C1692.47 363.298 1692.7 363.45 1692.9 363.644C1693.1 363.838 1693.25 364.069 1693.36 364.324C1693.46 364.579 1693.52 364.852 1693.52 365.128C1693.52 366.333 1692.65 367.227 1691.44 367.227C1690.9 367.227 1690.41 366.991 1690.09 366.634V368.961L1690.09 368.96ZM1691.4 366.471C1692.15 366.471 1692.71 365.862 1692.71 365.137C1692.71 364.405 1692.15 363.812 1691.4 363.812C1690.66 363.812 1690.09 364.405 1690.09 365.137C1690.09 365.861 1690.66 366.471 1691.4 366.471ZM1687.41 363.144H1688.21V367.13H1687.41V363.144ZM1698.27 359.507C1692.12 359.507 1687.42 354.774 1687.42 349.014C1687.42 343.296 1692.12 338.562 1698.27 338.562C1704.42 338.562 1709.12 343.296 1709.12 349.014C1709.12 354.774 1704.42 359.507 1698.27 359.507ZM1698.27 352.841C1700.52 352.841 1702.02 351.105 1702.02 349.055C1702.02 346.964 1700.52 345.228 1698.27 345.228C1696.02 345.228 1694.52 346.964 1694.52 349.053C1694.52 351.105 1696.02 352.841 1698.27 352.841ZM1674.02 368.578C1669.13 368.578 1665.58 366.41 1663.76 362.543L1669.64 359.388C1670.27 360.728 1671.46 362.11 1673.9 362.11C1676.46 362.11 1678.16 360.492 1678.36 357.652C1677.41 358.481 1675.91 359.112 1673.66 359.112C1668.18 359.112 1663.76 354.892 1663.76 348.975C1663.76 343.256 1668.46 338.603 1674.61 338.603C1680.92 338.603 1685.46 342.981 1685.46 349.014V356.824C1685.46 363.924 1680.53 368.578 1674.02 368.578ZM1674.49 352.446C1676.62 352.446 1678.24 350.987 1678.24 348.817C1678.24 346.688 1676.62 345.267 1674.49 345.267C1672.4 345.267 1670.75 346.688 1670.75 348.817C1670.75 350.987 1672.4 352.446 1674.49 352.446ZM1651.72 359.507C1645.57 359.507 1640.87 354.774 1640.87 349.014C1640.87 343.296 1645.57 338.562 1651.72 338.562C1657.87 338.562 1662.57 343.296 1662.57 349.014C1662.57 354.774 1657.87 359.507 1651.72 359.507ZM1651.72 352.841C1653.97 352.841 1655.47 351.105 1655.47 349.055C1655.47 346.964 1653.97 345.228 1651.72 345.228C1649.47 345.228 1647.97 346.964 1647.97 349.053C1647.97 351.105 1649.47 352.841 1651.72 352.841ZM1631 330.122H1638.1V358.915H1631V330.122ZM1717.17 340.982C1717.17 341.628 1716.91 342.248 1716.45 342.704C1716 343.161 1715.38 343.418 1714.73 343.418C1714.08 343.418 1713.46 343.161 1713.01 342.704C1712.55 342.248 1712.29 341.628 1712.29 340.982C1712.29 340.336 1712.55 339.716 1713.01 339.259C1713.46 338.802 1714.08 338.545 1714.73 338.545C1715.38 338.545 1716 338.802 1716.45 339.259C1716.91 339.716 1717.17 340.336 1717.17 340.982Z" fill="#113441"/>
<path fill-rule="evenodd" clip-rule="evenodd" d="M1697.74 313.774C1704.74 320.774 1708.92 330.111 1709.46 339.995C1707.39 337.575 1704.58 335.905 1701.47 335.244C1700.05 328.685 1696.65 322.716 1691.74 318.14C1686.84 313.564 1680.64 310.6 1674 309.644C1667.36 308.689 1660.58 309.789 1654.58 312.796C1648.58 315.803 1643.64 320.574 1640.43 326.467H1632.32C1634.9 320.413 1638.92 315.083 1644.03 310.945C1649.15 306.807 1655.2 303.987 1661.66 302.734C1668.12 301.481 1674.79 301.832 1681.08 303.757C1687.37 305.682 1693.09 309.121 1697.74 313.774Z" fill="#FFD43E"/>
<path fill-rule="evenodd" clip-rule="evenodd" d="M1692.58 318.943C1697.04 323.41 1700.13 329.069 1701.47 335.244C1700.44 335.025 1699.37 334.908 1698.27 334.908C1696.79 334.908 1695.36 335.12 1694.01 335.516C1692.51 329.975 1689.2 325.098 1684.59 321.671C1679.99 318.244 1674.36 316.465 1668.62 316.621C1662.89 316.777 1657.37 318.858 1652.95 322.53C1648.54 326.202 1645.49 331.251 1644.3 336.866C1643.38 337.391 1642.53 338.016 1641.75 338.728V326.467H1640.43C1642.88 321.976 1646.34 318.117 1650.54 315.197C1654.74 312.277 1659.56 310.377 1664.62 309.646C1669.68 308.916 1674.84 309.376 1679.7 310.989C1684.55 312.603 1688.96 315.326 1692.58 318.943Z" fill="#EE8E1D"/>
<path d="M1687.41 339.627C1686.85 335.686 1685.02 332.036 1682.19 329.231C1679.37 326.426 1675.7 324.621 1671.76 324.089C1667.81 323.558 1663.8 324.329 1660.34 326.286C1656.87 328.242 1654.14 331.278 1652.55 334.93C1656.89 335.164 1660.68 337.211 1663.16 340.303C1665.81 337.026 1669.94 334.948 1674.61 334.948C1679.62 334.948 1683.92 337.143 1686.51 340.72C1686.79 340.341 1687.09 339.977 1687.41 339.627Z" fill="#971C1C"/>
<path fill-rule="evenodd" clip-rule="evenodd" d="M1694.01 335.516C1691.48 336.256 1689.19 337.678 1687.41 339.627C1686.85 335.686 1685.02 332.037 1682.19 329.232C1679.37 326.428 1675.7 324.623 1671.76 324.091C1667.81 323.56 1663.8 324.331 1660.34 326.287C1656.87 328.243 1654.14 331.278 1652.55 334.93C1652.28 334.915 1652 334.908 1651.72 334.908C1649 334.908 1646.46 335.622 1644.3 336.866C1645.49 331.252 1648.54 326.204 1652.96 322.532C1657.37 318.861 1662.89 316.78 1668.62 316.625C1674.36 316.469 1679.98 318.247 1684.59 321.674C1689.19 325.1 1692.51 329.975 1694.01 335.516H1694.01Z" fill="#D62727"/>
</g>
<g filter="url(#filter9_d_58_1315)">
<rect x="360" y="428" width="145" height="145" fill="white"/>
</g>
<g clip-path="url(#clip9_58_1315)">
<path d="M465.857 528.031C467.061 528.031 467.713 528.925 467.713 530.031V532.13H466.906V530.161C466.906 529.438 466.549 528.803 465.8 528.803C465.076 528.803 464.711 529.412 464.711 530.146V532.13H463.906V530.144C463.906 529.413 463.54 528.803 462.798 528.803C462.051 528.803 461.717 529.437 461.717 530.161V532.13H460.913V530.04C460.913 528.925 461.546 528.03 462.742 528.03C463.539 528.03 464.117 528.436 464.32 529.055C464.539 528.436 465.101 528.031 465.857 528.031ZM458.079 531.447C458.819 531.447 459.226 530.803 459.226 530.064V528.144H460.031V530.161C460.031 531.316 459.332 532.227 458.079 532.227C456.843 532.227 456.142 531.308 456.142 530.153V528.144H456.948V530.072C456.948 530.803 457.347 531.447 458.079 531.447ZM453.872 532.219C453.131 532.219 452.562 531.927 452.251 531.333L452.87 530.992C453.074 531.389 453.399 531.537 453.839 531.537C454.294 531.537 454.644 531.349 454.644 530.999C454.644 530.161 452.359 530.796 452.359 529.275C452.359 528.575 452.976 528.062 453.847 528.062C454.587 528.062 455.091 528.404 455.343 528.868L454.726 529.218C454.555 528.868 454.23 528.746 453.863 528.746C453.489 528.746 453.164 528.941 453.164 529.257C453.164 530.072 455.449 529.478 455.449 530.982C455.449 531.739 454.718 532.219 453.872 532.219ZM448.342 533.96H447.536V530.128C447.536 528.941 448.456 528.045 449.659 528.045C449.935 528.041 450.21 528.092 450.466 528.195C450.722 528.298 450.956 528.45 451.153 528.644C451.349 528.838 451.506 529.069 451.612 529.324C451.719 529.579 451.774 529.852 451.774 530.128C451.774 531.333 450.904 532.227 449.691 532.227C449.155 532.227 448.668 531.991 448.341 531.634V533.961L448.342 533.96ZM449.659 531.471C450.4 531.471 450.969 530.862 450.969 530.137C450.969 529.405 450.4 528.812 449.659 528.812C448.911 528.812 448.342 529.405 448.342 530.137C448.342 530.861 448.911 531.471 449.659 531.471ZM445.664 528.144H446.468V532.13H445.664V528.144ZM456.526 524.507C450.373 524.507 445.679 519.774 445.679 514.014C445.679 508.296 450.373 503.562 456.526 503.562C462.678 503.562 467.373 508.296 467.373 514.014C467.373 519.774 462.679 524.507 456.526 524.507ZM456.526 517.841C458.774 517.841 460.273 516.105 460.273 514.055C460.273 511.964 458.775 510.228 456.526 510.228C454.277 510.228 452.779 511.964 452.779 514.053C452.779 516.105 454.277 517.841 456.526 517.841ZM432.273 533.578C427.382 533.578 423.831 531.41 422.017 527.543L427.895 524.388C428.526 525.728 429.71 527.11 432.155 527.11C434.718 527.11 436.415 525.492 436.612 522.652C435.665 523.481 434.166 524.112 431.919 524.112C426.436 524.112 422.017 519.892 422.017 513.975C422.017 508.256 426.712 503.603 432.865 503.603C439.175 503.603 443.712 507.981 443.712 514.014V521.824C443.712 528.924 438.781 533.578 432.273 533.578ZM432.746 517.446C434.877 517.446 436.493 515.987 436.493 513.817C436.493 511.688 434.877 510.267 432.746 510.267C430.656 510.267 429 511.688 429 513.817C429 515.987 430.657 517.446 432.746 517.446ZM409.974 524.507C403.821 524.507 399.128 519.774 399.128 514.014C399.128 508.296 403.821 503.562 409.974 503.562C416.126 503.562 420.821 508.296 420.821 514.014C420.821 519.774 416.127 524.507 409.974 524.507ZM409.974 517.841C412.222 517.841 413.722 516.105 413.722 514.055C413.722 511.964 412.223 510.228 409.974 510.228C407.726 510.228 406.227 511.964 406.227 514.053C406.227 516.105 407.726 517.841 409.974 517.841ZM389.254 495.122H396.354V523.915H389.254V495.122ZM475.421 505.982C475.421 506.628 475.165 507.248 474.708 507.704C474.251 508.161 473.631 508.418 472.985 508.418C472.339 508.418 471.719 508.161 471.262 507.704C470.805 507.248 470.549 506.628 470.549 505.982C470.549 505.336 470.805 504.716 471.262 504.259C471.719 503.802 472.339 503.545 472.985 503.545C473.631 503.545 474.251 503.802 474.708 504.259C475.165 504.716 475.421 505.336 475.421 505.982Z" fill="#113441"/>
<path fill-rule="evenodd" clip-rule="evenodd" d="M455.998 478.774C462.998 485.774 467.17 495.111 467.712 504.995C465.644 502.575 462.835 500.905 459.72 500.244C458.301 493.685 454.909 487.716 449.999 483.14C445.09 478.564 438.898 475.6 432.255 474.644C425.612 473.689 418.836 474.789 412.836 477.796C406.836 480.803 401.899 485.574 398.689 491.467H390.577C393.152 485.413 397.173 480.083 402.288 475.945C407.403 471.807 413.456 468.987 419.914 467.734C426.373 466.481 433.041 466.832 439.332 468.757C445.624 470.682 451.346 474.121 455.998 478.774Z" fill="#FFD43E"/>
<path fill-rule="evenodd" clip-rule="evenodd" d="M450.83 483.943C455.297 488.41 458.384 494.069 459.72 500.244C458.694 500.025 457.625 499.908 456.526 499.908C455.04 499.908 453.61 500.12 452.266 500.516C450.768 494.975 447.45 490.098 442.845 486.671C438.24 483.244 432.616 481.465 426.878 481.621C421.14 481.777 415.621 483.858 411.208 487.53C406.796 491.202 403.747 496.251 402.552 501.866C401.638 502.391 400.785 503.016 400.008 503.728V491.467H398.688C401.134 486.976 404.594 483.117 408.793 480.197C412.991 477.277 417.813 475.377 422.874 474.646C427.936 473.916 433.098 474.376 437.951 475.989C442.804 477.603 447.214 480.326 450.83 483.943Z" fill="#EE8E1D"/>
<path d="M445.663 504.627C445.103 500.686 443.272 497.036 440.447 494.231C437.622 491.426 433.958 489.621 430.013 489.089C426.068 488.558 422.057 489.329 418.59 491.286C415.124 493.242 412.391 496.278 410.808 499.93C415.144 500.164 418.933 502.211 421.416 505.303C424.061 502.026 428.192 499.948 432.865 499.948C437.872 499.948 442.175 502.143 444.763 505.72C445.045 505.341 445.346 504.977 445.663 504.627Z" fill="#971C1C"/>
<path fill-rule="evenodd" clip-rule="evenodd" d="M452.265 500.516C449.729 501.256 447.446 502.678 445.662 504.627C445.102 500.686 443.27 497.037 440.445 494.232C437.62 491.428 433.957 489.623 430.012 489.091C426.068 488.56 422.057 489.331 418.591 491.287C415.124 493.243 412.392 496.278 410.808 499.93C410.53 499.915 410.253 499.908 409.975 499.908C407.25 499.908 404.716 500.622 402.552 501.866C403.748 496.252 406.798 491.204 411.21 487.532C415.622 483.861 421.14 481.78 426.878 481.625C432.616 481.469 438.239 483.247 442.844 486.674C447.448 490.1 450.767 494.975 452.266 500.516H452.265Z" fill="#D62727"/>
</g>
<defs>
<filter id="filter0_d_58_1315" x="7" y="80" width="238" height="238" filterUnits="userSpaceOnUse" color-interpolation-filters="sRGB">
<feFlood flood-opacity="0" result="BackgroundImageFix"/>
<feColorMatrix in="SourceAlpha" type="matrix" values="0 0 0 0 0 0 0 0 0 0 0 0 0 0 0 0 0 0 127 0" result="hardAlpha"/>
<feOffset dy="42"/>
<feGaussianBlur stdDeviation="27"/>
<feColorMatrix type="matrix" values="0 0 0 0 0.145098 0 0 0 0 0.188235 0 0 0 0 0.32549 0 0 0 0.07 0"/>
<feBlend mode="normal" in2="BackgroundImageFix" result="effect1_dropShadow_58_1315"/>
<feBlend mode="normal" in="SourceGraphic" in2="effect1_dropShadow_58_1315" result="shape"/>
</filter>
<filter id="filter1_d_58_1315" x="227" y="0" width="253" height="253" filterUnits="userSpaceOnUse" color-interpolation-filters="sRGB">
<feFlood flood-opacity="0" result="BackgroundImageFix"/>
<feColorMatrix in="SourceAlpha" type="matrix" values="0 0 0 0 0 0 0 0 0 0 0 0 0 0 0 0 0 0 127 0" result="hardAlpha"/>
<feOffset dy="42"/>
<feGaussianBlur stdDeviation="27"/>
<feColorMatrix type="matrix" values="0 0 0 0 0.145098 0 0 0 0 0.188235 0 0 0 0 0.32549 0 0 0 0.07 0"/>
<feBlend mode="normal" in2="BackgroundImageFix" result="effect1_dropShadow_58_1315"/>
<feBlend mode="normal" in="SourceGraphic" in2="effect1_dropShadow_58_1315" result="shape"/>
</filter>
<filter id="filter2_d_58_1315" x="212" y="243" width="208" height="208" filterUnits="userSpaceOnUse" color-interpolation-filters="sRGB">
<feFlood flood-opacity="0" result="BackgroundImageFix"/>
<feColorMatrix in="SourceAlpha" type="matrix" values="0 0 0 0 0 0 0 0 0 0 0 0 0 0 0 0 0 0 127 0" result="hardAlpha"/>
<feOffset dy="42"/>
<feGaussianBlur stdDeviation="27"/>
<feColorMatrix type="matrix" values="0 0 0 0 0.145098 0 0 0 0 0.188235 0 0 0 0 0.32549 0 0 0 0.07 0"/>
<feBlend mode="normal" in2="BackgroundImageFix" result="effect1_dropShadow_58_1315"/>
<feBlend mode="normal" in="SourceGraphic" in2="effect1_dropShadow_58_1315" result="shape"/>
</filter>
<filter id="filter3_d_58_1315" x="0" y="354" width="238" height="238" filterUnits="userSpaceOnUse" color-interpolation-filters="sRGB">
<feFlood flood-opacity="0" result="BackgroundImageFix"/>
<feColorMatrix in="SourceAlpha" type="matrix" values="0 0 0 0 0 0 0 0 0 0 0 0 0 0 0 0 0 0 127 0" result="hardAlpha"/>
<feOffset dy="42"/>
<feGaussianBlur stdDeviation="27"/>
<feColorMatrix type="matrix" values="0 0 0 0 0.145098 0 0 0 0 0.188235 0 0 0 0 0.32549 0 0 0 0.07 0"/>
<feBlend mode="normal" in2="BackgroundImageFix" result="effect1_dropShadow_58_1315"/>
<feBlend mode="normal" in="SourceGraphic" in2="effect1_dropShadow_58_1315" result="shape"/>
</filter>
<filter id="filter4_d_58_1315" x="1236" y="23" width="233" height="233" filterUnits="userSpaceOnUse" color-interpolation-filters="sRGB">
<feFlood flood-opacity="0" result="BackgroundImageFix"/>
<feColorMatrix in="SourceAlpha" type="matrix" values="0 0 0 0 0 0 0 0 0 0 0 0 0 0 0 0 0 0 127 0" result="hardAlpha"/>
<feOffset dy="42"/>
<feGaussianBlur stdDeviation="27"/>
<feColorMatrix type="matrix" values="0 0 0 0 0.145098 0 0 0 0 0.188235 0 0 0 0 0.32549 0 0 0 0.07 0"/>
<feBlend mode="normal" in2="BackgroundImageFix" result="effect1_dropShadow_58_1315"/>
<feBlend mode="normal" in="SourceGraphic" in2="effect1_dropShadow_58_1315" result="shape"/>
</filter>
<filter id="filter5_d_58_1315" x="1439" y="85" width="208" height="208" filterUnits="userSpaceOnUse" color-interpolation-filters="sRGB">
<feFlood flood-opacity="0" result="BackgroundImageFix"/>
<feColorMatrix in="SourceAlpha" type="matrix" values="0 0 0 0 0 0 0 0 0 0 0 0 0 0 0 0 0 0 127 0" result="hardAlpha"/>
<feOffset dy="42"/>
<feGaussianBlur stdDeviation="27"/>
<feColorMatrix type="matrix" values="0 0 0 0 0.145098 0 0 0 0 0.188235 0 0 0 0 0.32549 0 0 0 0.07 0"/>
<feBlend mode="normal" in2="BackgroundImageFix" result="effect1_dropShadow_58_1315"/>
<feBlend mode="normal" in="SourceGraphic" in2="effect1_dropShadow_58_1315" result="shape"/>
</filter>
<filter id="filter6_d_58_1315" x="1304" y="217" width="208" height="208" filterUnits="userSpaceOnUse" color-interpolation-filters="sRGB">
<feFlood flood-opacity="0" result="BackgroundImageFix"/>
<feColorMatrix in="SourceAlpha" type="matrix" values="0 0 0 0 0 0 0 0 0 0 0 0 0 0 0 0 0 0 127 0" result="hardAlpha"/>
<feOffset dy="42"/>
<feGaussianBlur stdDeviation="27"/>
<feColorMatrix type="matrix" values="0 0 0 0 0.145098 0 0 0 0 0.188235 0 0 0 0 0.32549 0 0 0 0.07 0"/>
<feBlend mode="normal" in2="BackgroundImageFix" result="effect1_dropShadow_58_1315"/>
<feBlend mode="normal" in="SourceGraphic" in2="effect1_dropShadow_58_1315" result="shape"/>
</filter>
<filter id="filter7_d_58_1315" x="1259" y="354" width="258" height="258" filterUnits="userSpaceOnUse" color-interpolation-filters="sRGB">
<feFlood flood-opacity="0" result="BackgroundImageFix"/>
<feColorMatrix in="SourceAlpha" type="matrix" values="0 0 0 0 0 0 0 0 0 0 0 0 0 0 0 0 0 0 127 0" result="hardAlpha"/>
<feOffset dy="42"/>
<feGaussianBlur stdDeviation="27"/>
<feColorMatrix type="matrix" values="0 0 0 0 0.145098 0 0 0 0 0.188235 0 0 0 0 0.32549 0 0 0 0.07 0"/>
<feBlend mode="normal" in2="BackgroundImageFix" result="effect1_dropShadow_58_1315"/>
<feBlend mode="normal" in="SourceGraphic" in2="effect1_dropShadow_58_1315" result="shape"/>
</filter>
<filter id="filter8_d_58_1315" x="1548" y="252" width="251" height="251" filterUnits="userSpaceOnUse" color-interpolation-filters="sRGB">
<feFlood flood-opacity="0" result="BackgroundImageFix"/>
<feColorMatrix in="SourceAlpha" type="matrix" values="0 0 0 0 0 0 0 0 0 0 0 0 0 0 0 0 0 0 127 0" result="hardAlpha"/>
<feOffset dy="42"/>
<feGaussianBlur stdDeviation="27"/>
<feColorMatrix type="matrix" values="0 0 0 0 0.145098 0 0 0 0 0.188235 0 0 0 0 0.32549 0 0 0 0.07 0"/>
<feBlend mode="normal" in2="BackgroundImageFix" result="effect1_dropShadow_58_1315"/>
<feBlend mode="normal" in="SourceGraphic" in2="effect1_dropShadow_58_1315" result="shape"/>
</filter>
<filter id="filter9_d_58_1315" x="306" y="416" width="253" height="253" filterUnits="userSpaceOnUse" color-interpolation-filters="sRGB">
<feFlood flood-opacity="0" result="BackgroundImageFix"/>
<feColorMatrix in="SourceAlpha" type="matrix" values="0 0 0 0 0 0 0 0 0 0 0 0 0 0 0 0 0 0 127 0" result="hardAlpha"/>
<feOffset dy="42"/>
<feGaussianBlur stdDeviation="27"/>
<feColorMatrix type="matrix" values="0 0 0 0 0.145098 0 0 0 0 0.188235 0 0 0 0 0.32549 0 0 0 0.07 0"/>
<feBlend mode="normal" in2="BackgroundImageFix" result="effect1_dropShadow_58_1315"/>
<feBlend mode="normal" in="SourceGraphic" in2="effect1_dropShadow_58_1315" result="shape"/>
</filter>
<clipPath id="clip0_58_1315">
<rect width="71" height="55" fill="white" transform="translate(91 130)"/>
</clipPath>
<clipPath id="clip1_58_1315">
<rect width="71" height="55" fill="white" transform="translate(318 57)"/>
</clipPath>
<clipPath id="clip2_58_1315">
<rect width="50.3455" height="39" fill="white" transform="translate(290.327 285)"/>
</clipPath>
<clipPath id="clip3_58_1315">
<rect width="71" height="55" fill="white" transform="translate(83.6729 404)"/>
</clipPath>
<clipPath id="clip4_58_1315">
<rect width="83.9091" height="65" fill="white" transform="translate(1310.55 65)"/>
</clipPath>
<clipPath id="clip5_58_1315">
<rect width="60.6727" height="47" fill="white" transform="translate(1513 123)"/>
</clipPath>
<clipPath id="clip6_58_1315">
<rect width="60.6727" height="47" fill="white" transform="translate(1378 255)"/>
</clipPath>
<clipPath id="clip7_58_1315">
<rect width="86.4909" height="67" fill="white" transform="translate(1345.09 407)"/>
</clipPath>
<clipPath id="clip8_58_1315">
<rect width="86.4909" height="67" fill="white" transform="translate(1631 302)"/>
</clipPath>
<clipPath id="clip9_58_1315">
<rect width="86.4909" height="67" fill="white" transform="translate(389.254 467)"/>
</clipPath>
</defs>
</svg>
